<?xml version="1.0" standalone="no"?>
<!DOCTYPE svg PUBLIC "-//W3C//DTD SVG 20010904//EN"
 "http://www.w3.org/TR/2001/REC-SVG-20010904/DTD/svg10.dtd">
<svg version="1.0" xmlns="http://www.w3.org/2000/svg"
 width="318.000000pt" height="35.000000pt" viewBox="0 0 318.000000 35.000000"
 preserveAspectRatio="xMidYMid meet">

<g transform="translate(0.000000,35.000000) scale(0.100000,-0.100000)"
fill="#000000" stroke="none">
<path d="M682 268 c-16 -16 -15 -35 3 -42 25 -9 46 5 43 28 -3 24 -28 32 -46
14z"/>
<path d="M1692 268 c-16 -16 -15 -35 3 -42 25 -9 46 5 43 28 -3 24 -28 32 -46
14z"/>
<path d="M2102 268 c-16 -16 -15 -35 3 -42 25 -9 46 5 43 28 -3 24 -28 32 -46
14z"/>
<path d="M82 213 c-6 -27 -14 -70 -17 -96 l-8 -49 29 4 c28 3 29 5 45 96 l16
92 -28 0 c-25 0 -28 -5 -37 -47z"/>
<path d="M1492 213 c-6 -27 -13 -69 -17 -96 l-7 -47 57 0 c49 0 60 4 86 29 18
19 29 40 29 58 0 15 3 37 6 49 9 35 -20 54 -86 54 l-58 0 -10 -47z m90 -38
c-4 -43 -17 -65 -39 -65 -11 0 -12 9 -8 38 11 63 16 73 33 70 13 -3 16 -13 14
-43z"/>
<path d="M522 232 c-7 -5 -18 -36 -24 -70 -9 -48 -9 -64 2 -76 19 -23 85 -21
110 4 28 28 25 40 -10 40 -16 0 -30 -4 -30 -10 0 -5 -4 -10 -10 -10 -5 0 -10
11 -10 25 0 23 4 25 40 25 33 0 40 3 40 20 0 16 -7 20 -36 20 -31 0 -36 3 -31
20 5 21 -16 27 -41 12z"/>
<path d="M772 232 c-7 -5 -18 -36 -24 -70 -9 -48 -9 -64 2 -76 19 -23 85 -21
110 4 28 28 25 40 -10 40 -16 0 -30 -4 -30 -10 0 -5 -4 -10 -10 -10 -5 0 -10
11 -10 25 0 23 4 25 40 25 33 0 40 3 40 20 0 16 -7 20 -35 20 -28 0 -35 4 -35
20 0 21 -16 26 -38 12z"/>
<path d="M1112 232 c-7 -5 -18 -36 -24 -70 -14 -74 -4 -92 51 -92 40 0 64 14
74 43 5 14 1 17 -23 17 -17 0 -30 -4 -30 -10 0 -5 -4 -10 -10 -10 -5 0 -10 11
-10 25 0 23 4 25 40 25 33 0 40 3 40 20 0 16 -7 20 -35 20 -28 0 -35 4 -35 20
0 21 -16 26 -38 12z"/>
<path d="M1942 232 c-7 -5 -18 -36 -24 -70 -14 -74 -4 -92 51 -92 40 0 64 14
74 43 5 14 1 17 -23 17 -17 0 -30 -4 -30 -10 0 -5 -4 -10 -10 -10 -5 0 -10 11
-10 25 0 23 4 25 40 25 33 0 40 3 40 20 0 16 -7 20 -35 20 -28 0 -35 4 -35 20
0 21 -16 26 -38 12z"/>
<path d="M175 188 c-2 -7 -8 -37 -13 -65 l-9 -53 27 0 c29 0 40 19 40 68 0 12
5 22 10 22 6 0 10 -20 10 -45 0 -45 0 -45 35 -45 28 0 35 4 35 20 0 11 -3 20
-7 20 -5 0 -8 19 -8 42 l0 43 -58 3 c-40 2 -59 -1 -62 -10z"/>
<path d="M346 185 c-29 -30 -12 -65 31 -65 13 0 23 -4 23 -9 0 -5 -18 -7 -40
-4 -40 6 -50 -3 -28 -25 17 -17 103 -15 118 3 19 23 7 49 -28 59 -45 13 -40
25 9 19 36 -5 41 -4 37 13 -5 26 -98 33 -122 9z"/>
<path d="M656 154 c-11 -81 -10 -84 29 -84 28 0 35 4 35 20 0 11 -4 20 -10 20
-5 0 -8 6 -6 13 3 6 7 27 10 45 5 30 4 32 -23 32 -26 0 -29 -4 -35 -46z"/>
<path d="M905 146 c-4 -30 -4 -59 -1 -65 10 -16 143 -12 150 4 3 8 0 17 -6 21
-6 4 -8 24 -4 51 6 44 5 44 -21 41 -23 -3 -29 -9 -36 -45 -11 -59 -32 -57 -24
2 7 44 6 45 -22 45 -28 0 -30 -3 -36 -54z"/>
<path d="M1255 176 c-10 -15 -15 -40 -13 -63 3 -38 3 -38 49 -41 33 -2 51 2
63 13 27 28 19 38 -24 31 -25 -4 -40 -2 -40 4 0 5 20 10 45 10 43 0 45 1 45
29 0 33 -14 41 -71 41 -30 0 -42 -5 -54 -24z m65 -16 c0 -5 -5 -10 -11 -10 -5
0 -7 5 -4 10 3 6 8 10 11 10 2 0 4 -4 4 -10z"/>
<path d="M1666 154 c-11 -81 -10 -84 29 -84 28 0 35 4 35 20 0 11 -4 20 -9 20
-5 0 -5 16 0 38 12 52 12 52 -20 52 -26 0 -29 -3 -35 -46z"/>
<path d="M1765 176 c-10 -15 -15 -40 -13 -63 3 -38 3 -38 49 -41 33 -2 51 2
63 13 27 28 19 38 -25 31 -39 -6 -40 -5 -34 16 9 30 17 36 22 21 3 -7 18 -13
34 -13 21 0 29 5 29 18 0 29 -21 42 -67 42 -34 0 -46 -5 -58 -24z"/>
<path d="M2076 154 c-11 -81 -10 -84 29 -84 28 0 35 4 35 20 0 11 -4 20 -9 20
-5 0 -5 16 0 38 12 52 12 52 -20 52 -26 0 -29 -3 -35 -46z"/>
<path d="M2175 176 c-10 -15 -15 -40 -13 -63 l3 -38 51 -3 c60 -3 73 8 81 69
7 49 -4 59 -64 59 -34 0 -46 -5 -58 -24z m65 -40 c0 -27 -15 -42 -25 -26 -8
13 3 50 16 50 5 0 9 -11 9 -24z"/>
<path d="M2335 188 c-2 -7 -8 -37 -13 -65 l-9 -53 28 0 c25 0 28 4 35 45 3 25
10 45 15 45 5 0 9 -20 9 -45 0 -45 0 -45 35 -45 28 0 35 4 35 20 0 11 -4 20
-8 20 -5 0 -8 19 -8 43 l1 42 -58 3 c-40 2 -59 -1 -62 -10z"/>
<path d="M2505 176 c-10 -15 -15 -40 -13 -63 l3 -38 73 -3 c66 -3 72 -1 72 17
0 11 -4 21 -9 23 -6 2 -6 21 -2 46 l8 42 -58 0 c-51 0 -61 -3 -74 -24z m65
-41 c0 -16 -6 -25 -15 -25 -16 0 -19 9 -9 34 9 25 24 19 24 -9z"/>
<path d="M2675 188 c-2 -7 -8 -37 -13 -65 l-9 -53 27 0 c29 0 40 19 40 68 0
12 5 22 10 22 6 0 10 -4 10 -10 0 -16 47 -12 54 5 12 33 -4 45 -60 45 -35 0
-56 -5 -59 -12z"/>
<path d="M2815 144 c-4 -35 -3 -60 3 -66 7 -7 6 -15 -4 -26 -35 -35 15 -65 81
-48 27 7 33 20 51 111 18 90 19 87 -13 83 -19 -2 -29 -10 -31 -23 -7 -48 -13
-65 -24 -65 -7 0 -9 15 -5 45 7 44 6 45 -22 45 -27 0 -29 -3 -36 -56z m56
-107 c-8 -8 -11 -7 -11 4 0 20 13 34 18 19 3 -7 -1 -17 -7 -23z"/>
</g>
</svg>
